<?xml version="1.0" encoding="utf-8"?>
<!-- Generator: Adobe Illustrator 16.0.3, SVG Export Plug-In . SVG Version: 6.00 Build 0)  -->
<!DOCTYPE svg PUBLIC "-//W3C//DTD SVG 1.1//EN" "http://www.w3.org/Graphics/SVG/1.1/DTD/svg11.dtd">
<svg version="1.1" id="Layer_1" xmlns="http://www.w3.org/2000/svg" xmlns:xlink="http://www.w3.org/1999/xlink" x="0px" y="0px"
	 width="594.968px" height="594.968px" viewBox="0 0 594.968 594.968" enable-background="new 0 0 594.968 594.968"
	 xml:space="preserve">
<g>
	<path fill="#b67735ff" d="M584.286,298.145c0,4.893,0.729,9.797,0.488,14.629c-0.243,4.885,0.729,9.912,0.245,14.729
		c-0.489,4.863-2.565,9.578-3.293,14.367c-0.733,4.83-3.806,9.203-4.776,13.951c-0.977,4.783-1.236,9.658-2.448,14.352
		c-1.221,4.727-1.181,9.797-2.631,14.426c-1.459,4.654-2.014,9.676-3.7,14.226c-1.694,4.573-6.609,7.855-8.525,12.315
		c-1.925,4.479-1.575,9.983-3.717,14.342c-2.149,4.373-3.544,9.228-5.905,13.473c-2.368,4.257-5.435,8.202-8.009,12.323
		c-2.58,4.131-8.267,6.186-11.047,10.172c-2.784,3.994-4.855,8.406-7.834,12.249c-2.982,3.847-4.101,9.22-7.271,12.908
		c-3.171,3.691-8.433,5.492-11.784,9.017c-3.353,3.526-5.622,8.1-9.147,11.452c-3.525,3.352-7.778,5.886-11.47,9.057
		c-3.688,3.17-6.203,7.806-10.051,10.788c-3.843,2.979-9.693,3.206-13.687,5.991c-3.987,2.78-6.732,7.376-10.862,9.955
		c-4.122,2.574-9.037,3.779-13.295,6.147c-4.245,2.361-7.246,7.151-11.619,9.301c-4.358,2.142-10.116,1.284-14.595,3.209
		c-4.46,1.916-8.132,5.791-12.704,7.485c-4.55,1.686-9.982,0.748-14.638,2.207c-4.628,1.451-9.01,3.553-13.735,4.772
		c-4.694,1.212-9.565,1.398-14.35,2.377c-4.747,0.97-9.439,1.802-14.269,2.535c-4.789,0.728-9.433,2.168-14.295,2.657
		c-4.817,0.484-9.62,0.681-14.504,0.924c-4.833,0.241-9.633,2.074-14.525,2.074s-9.767-0.33-14.6-0.571
		c-4.884-0.243-9.837,0.296-14.654-0.188c-4.863-0.489-9.441-3.111-14.23-3.839c-4.83-0.733-10.069,0.836-14.816-0.135
		c-4.784-0.978-9.441-2.715-14.136-3.927c-4.726-1.221-8.768-4.744-13.396-6.195c-4.655-1.459-10.323,0.04-14.874-1.646
		c-4.573-1.694-8.675-4.711-13.135-6.628c-4.479-1.924-7.994-5.87-12.353-8.012c-4.373-2.149-9.16-3.392-13.405-5.753
		c-4.257-2.368-9.04-3.857-13.161-6.432c-4.13-2.58-7.767-5.937-11.753-8.717c-3.994-2.785-9.006-4.256-12.848-7.234
		c-3.847-2.982-7.803-5.979-11.491-9.148c-3.691-3.172-6.287-7.641-9.812-10.992c-3.526-3.353-8.079-5.76-11.432-9.285
		c-3.352-3.525-4.727-8.882-7.898-12.573c-3.169-3.688-7.843-6.176-10.825-10.022c-2.979-3.843-6.137-7.653-8.922-11.646
		c-2.78-3.987-3.492-9.375-6.072-13.506c-2.574-4.121-7.403-6.958-9.771-11.216c-2.361-4.245-3.795-9.071-5.944-13.445
		c-2.142-4.357-2.353-9.616-4.277-14.095c-1.917-4.46-3.866-8.871-5.56-13.443c-1.686-4.55-5.665-8.356-7.124-13.012
		c-1.451-4.628-2.353-9.509-3.573-14.233c-1.212-4.694,0.924-10.16-0.054-14.943c-0.971-4.748-2.447-9.336-3.181-14.166
		c-0.728-4.789-2.087-9.468-2.576-14.33c-0.484-4.817,0.057-9.681-0.187-14.564c-0.241-4.834-1.162-9.619-1.162-14.512
		s0.959-9.676,1.2-14.509c0.244-4.884-2.028-9.919-1.544-14.736c0.489-4.863,4.054-9.294,4.781-14.083
		c0.734-4.83-2.358-10.326-1.388-15.074c0.978-4.783,2.576-9.503,3.788-14.198c1.22-4.726,2.265-9.579,3.716-14.208
		c1.459-4.655,3.601-9.152,5.287-13.702c1.694-4.573,3.081-9.345,4.997-13.805c1.925-4.479,6.654-7.677,8.796-12.035
		c2.149-4.373,4.398-8.621,6.76-12.866c2.368-4.257,3.075-9.481,5.649-13.602c2.58-4.13,5.596-8.012,8.376-11.999
		c2.785-3.994,5.791-7.85,8.77-11.692c2.982-3.847,6.722-7.071,9.891-10.759c3.172-3.691,5.242-8.4,8.594-11.925
		c3.353-3.526,6.479-7.378,10.005-10.731c3.525-3.352,8.151-5.558,11.842-8.729c3.688-3.169,7.28-6.49,11.127-9.472
		c3.842-2.979,8.438-4.933,12.432-7.718c3.987-2.78,8.527-4.629,12.658-7.208c4.121-2.574,6.986-7.259,11.243-9.627
		c4.245-2.361,8.812-4.206,13.185-6.355c4.358-2.142,9.323-2.966,13.802-4.891c4.46-1.917,8.532-4.797,13.105-6.492
		c4.55-1.686,9.607-1.864,14.262-3.323c4.628-1.451,8.87-4.239,13.596-5.459c4.694-1.212,9.256-3.267,14.04-4.244
		c4.747-0.971,9.811-0.477,14.64-1.211c4.789-0.728,9.653-0.937,14.516-1.426c4.817-0.484,9.637-1.032,14.521-1.276
		c4.833-0.241,9.684-0.917,14.576-0.917s9.851-1.488,14.684-1.247c4.884,0.244,9.68,2.11,14.497,2.594
		c4.863,0.489,9.963-0.565,14.752,0.163c4.83,0.734,9.324,3.565,14.071,4.536c4.784,0.978,9.078,3.822,13.772,5.035
		c4.726,1.22,9.983,0.413,14.611,1.864c4.655,1.459,8.913,4.04,13.463,5.726c4.573,1.694,9.651,2.124,14.11,4.04
		c4.479,1.925,8.886,4.092,13.244,6.233c4.373,2.149,8.285,5.206,12.53,7.567c4.257,2.368,8.76,4.332,12.881,6.906
		c4.131,2.58,7.929,5.682,11.915,8.462c3.994,2.785,7.839,5.764,11.682,8.743c3.847,2.982,6.384,7.483,10.072,10.653
		c3.69,3.171,8.409,5.122,11.934,8.474c3.526,3.353,7.827,5.955,11.18,9.48c3.352,3.525,6.043,7.687,9.214,11.378
		c3.17,3.688,5.751,7.85,8.732,11.696c2.979,3.843,5.146,8.229,7.932,12.223c2.779,3.987,8.294,6.196,10.874,10.326
		c2.574,4.122,1.747,10.264,4.115,14.521c2.361,4.245,5.653,7.945,7.802,12.318c2.143,4.358,3.578,9,5.503,13.479
		c1.916,4.46,5.983,8.072,7.678,12.645c1.686,4.55,2.708,9.39,4.167,14.045c1.451,4.628,0.774,9.857,1.994,14.583
		c1.212,4.694,3.168,9.18,4.146,13.964c0.971,4.748,2.744,9.366,3.478,14.196c0.728,4.789,0.347,9.731,0.836,14.594
		c0.483,4.817,0.842,9.635,1.085,14.52C583.528,288.422,584.286,293.252,584.286,298.145z"/>
</g>
<g opacity="0.2">
	<path fill="#FFFFFF" d="M296.333,10.597c-4.893,0-9.801-1.204-14.634-0.963c-4.884,0.244-9.663,1.769-14.48,2.253
		c-4.863,0.489-9.896-0.354-14.685,0.374c-4.83,0.734-9.376,3.083-14.124,4.054c-4.784,0.978-9.266,3.013-13.96,4.226
		c-4.726,1.22-9.751,1.227-14.379,2.678c-4.655,1.459-9.402,2.657-13.952,4.343c-4.573,1.694-9.041,3.68-13.5,5.596
		c-4.479,1.925-8.667,4.463-13.026,6.605c-4.373,2.149-7.888,5.809-12.133,8.17c-4.257,2.368-9.162,3.518-13.283,6.092
		c-4.13,2.58-7.21,6.634-11.197,9.414c-3.994,2.785-9.054,4.027-12.897,7.005c-3.847,2.982-8.791,4.688-12.479,7.858
		c-3.691,3.171-5.835,8.104-9.36,11.455c-3.526,3.353-7.721,6.042-11.074,9.568c-3.352,3.525-5.506,8.126-8.678,11.817
		c-3.169,3.688-6.317,7.345-9.3,11.192c-2.978,3.842-6.571,7.219-9.356,11.213c-2.78,3.987-4.958,8.368-7.539,12.499
		c-2.574,4.122-5.467,8.05-7.835,12.308c-2.361,4.245-4.728,8.503-6.877,12.876c-2.142,4.358-5.909,8.041-7.833,12.52
		c-1.917,4.46-2.151,9.67-3.845,14.243c-1.686,4.55-2.118,9.528-3.577,14.183c-1.451,4.628-3.545,9.063-4.765,13.789
		c-1.212,4.694-2.927,9.303-3.905,14.087c-0.971,4.748-2.673,9.436-3.407,14.266c-0.728,4.789,2.022,10.023,1.534,14.886
		c-0.484,4.817-4.671,9.377-4.915,14.262c-0.241,4.833,0.835,9.788,0.835,14.681c0,4.732-0.521,9.498-0.294,14.174
		c0.229,4.723,3,9.242,3.455,13.902c0.458,4.705,0.43,9.406,1.112,14.042c0.688,4.674-0.566,9.688,0.343,14.288
		c0.917,4.632,2.829,9.08,3.964,13.631c1.143,4.58,3.298,8.875,4.657,13.365c1.367,4.516,2.749,9.723,4.328,14.143
		c2.846-5.875,5.949-10.225,8.957-13.126c4.239-4.091,8.329-8.029,13.714-8.048c4.492-0.015,9.456,3.359,15.362,4.809
		c4.534,1.112,9.318,3.553,14.977,4.879c5.171,1.211,9.686,2.182,13.707,4.424c4.465,2.488,10.142,3.463,13.443,6.953
		c3.375,3.568,3.909,9.448,6.349,13.765c2.388,4.225,6.13,7.924,7.892,12.577c1.731,4.575,2.171,9.677,3.554,14.396
		c1.399,4.776,4.176,9.136,5.479,13.782c1.375,4.903-0.347,10.66,1.223,15.1c1.743,4.93,6.692,8.107,9.076,12.04
		c2.689,4.437,3.667,10.481,7.745,13.042c3.835,2.407,9.425,2.947,15.009,3.143c4.247,0.149,8.746-2.557,14.26-3.96
		c4.761-1.211,9.151-2.79,13.361-3.765c4.842-1.122,10.041,1.156,14.227,0.333c4.956-0.974,9.314-2.356,13.469-2.935
		c5.105-0.711,9.549-1.912,13.662-2.064c5.218-0.195,9.989-1.591,14.049-0.971c4.938,0.755,9.377,2.777,13.405,4.586
		c4.076,1.831,7.841,4.583,11.894,7.322c3.505,2.368,7.753,4.251,11.878,7.18c3.433,2.437,5.854,6.969,10.092,9.723
		c4.754,3.09,9.941,3.196,14.271,4.266c5.112,1.264,9.524,1.542,14.364,0.73c4.745-0.796,9.355-1.995,14.165-4.021
		c4.382-1.847,8.479-4.757,13.172-7.026c4.317-2.088,9.926-1.785,14.706-3.768c4.439-1.841,8.482-5.275,13.479-6.655
		c4.938-1.363,9.828-2.181,14.415-2.24c4.951-0.063,9.638,2.128,14.3,2.698c4.882,0.598,9.631,2.413,14.335,2.677
		c4.809,0.27,9.364-3.086,14.137-4.277c4.827-1.205,10.213-1.505,13.805-4.991c3.284-3.188,4.901-8.323,7.432-12.873
		c2.253-4.052,4.322-8.473,6.178-13.214c1.734-4.429,4.803-8.584,6.35-13.305c1.518-4.627,1.254-9.885,2.737-14.506
		c1.524-4.748,1.688-9.954,3.333-14.394c1.783-4.813,6.762-8.028,8.879-12.104c2.442-4.701,4.184-9.18,7.358-12.339
		c3.323-3.307,7.783-2.102,12.336,1.503c3.336,2.642,6.353,6.739,9.892,9.449c4.242,3.247,8.41,5.231,12.337,3.716
		c3.351-1.293,7.29-4.706,9.317-10.494c1.361-3.885-0.486-9.34,0.551-14.416c0.892-4.369,2.181-8.915,2.982-13.705
		c0.77-4.594,1.653-9.271,2.466-13.867c0.843-4.771,2.318-9.366,3.343-13.725c1.175-4.996,2.953-9.484,4.56-13.343
		c2.203-5.293,4.255-10.576,7.733-12.306c3.519-1.749,8.412-1.264,13.784,2.322c2.029-4.102,4.507-6.645,6.281-10.797
		c1.797-4.203,3.29-8.524,4.832-12.771c1.56-4.293,2.647-8.723,3.954-13.052c-0.268-4.866,1.484-9.917,0.979-14.715
		c-0.512-4.843-2.977-9.472-3.725-14.24c-0.755-4.81-0.151-9.903-1.141-14.63c-0.997-4.763-2.099-9.58-3.328-14.252
		c-1.237-4.704-4.208-8.942-5.674-13.548c-1.475-4.633-3.72-8.977-5.418-13.504c-1.708-4.55-4.841-8.443-6.769-12.88
		c-1.936-4.456-0.716-10.36-2.866-14.695c-2.159-4.35-7.568-6.967-9.937-11.189c-2.375-4.234-1.945-10.115-4.524-14.213
		c-2.585-4.107-5.05-8.388-7.833-12.352c-2.788-3.971-6.667-7.205-9.647-11.024c-2.983-3.825-6.281-7.418-9.45-11.084
		c-3.171-3.669-7.919-5.857-11.269-9.361c-3.351-3.504-6.83-6.752-10.352-10.084c-3.521-3.331-6.994-6.581-10.68-9.733
		c-3.684-3.149-7.365-6.164-11.206-9.126c-3.836-2.96-6.763-7.085-10.748-9.852c-3.979-2.762-6.947-7.149-11.069-9.712
		c-4.111-2.558-8.964-3.993-13.211-6.346c-4.234-2.345-8.784-4.145-13.146-6.28c-4.347-2.127-9.181-3.167-13.646-5.078
		c-4.447-1.903-7.84-6.568-12.398-8.25c-4.537-1.675-10.14-0.356-14.78-1.805c-4.613-1.441-9.406-2.071-14.117-3.282
		c-4.679-1.204-8.677-5.442-13.445-6.413c-4.731-0.964-9.973,0.739-14.786,0.011c-4.772-0.723-9.584-0.813-14.43-1.298
		c-4.801-0.481-9.529-1.449-14.396-1.69C306.012,11.178,301.209,10.597,296.333,10.597z"/>
</g>
<g>
   <path fill="#8B5A2B" d="M295.786,125.553c-10,2-20,3-30,1c-10-2-18-6-24-12c-6-6-8-14-6-21c2-7,8-13,16-17c8-4,18-5,28-3
   	c10,2,19,7,25,13c6,6,7,14,5,21c-2,7-8,12-14,18z"/>
</g>
<g>
   <path fill="#8B5A2B" d="M185.5,252.008c-8,3-17,5-26,4c-9-1-17-5-23-11c-6-6-8-14-6-22c2-8,8-15,16-20c8-5,18-7,27-5c9,2,17,7,23,14
   	c6,7,7,16,4,23c-3,7-9,13-15,17z"/>
</g>
<g>
   <path fill="#8B5A2B" d="M350.246,285.887c-7,2-15,3-23,1c-8-2-15-6-19-12c-4-6-5-13-3-19c2-6,7-11,14-15c7-4,16-5,24-3c8,2,15,7,19,13
   	c4,6,4,14,1,20c-3,6-8,11-13,15z"/>
</g>
<g>
   <path fill="#8B5A2B" d="M230.856,428.73c-9,2-19,2-28-1c-9-3-16-8-21-15c-5-7-6-16-3-24c3-8,10-15,19-19c9-4,20-5,29-2c9,3,17,9,22,17
   	c5,8,5,17,2,25c-3,8-10,14-20,19z"/>
</g>
<g>
   <path fill="#8B5A2B" d="M438.152,455.201c-7,2-15,3-23,1c-8-2-15-6-19-12c-4-6-5-14-2-21c3-7,9-12,17-15c8-3,17-3,25,0c8,3,14,8,18,15
   	c4,7,4,15,1,22c-3,7-9,12-17,10z"/>
</g>
<g>
   <path fill="#8B5A2B" d="M545.157,298.343c-6,2-13,2-20,0c-7-2-13-6-16-11c-3-5-4-12-1-18c3-6,8-11,15-14c7-3,15-3,22,0c7,3,12,8,15,14
   	c3,6,2,13-1,19c-3,6-8,10-14,10z"/>
</g>
<g>
   <path fill="#8B5A2B" d="M468.01,175.808c-8,2-17,2-25-1c-8-3-14-8-18-15c-4-7-4-15-1-22c3-7,10-13,18-16c8-3,18-3,26,1c8,4,14,10,17,17
   	c3,7,2,16-2,23c-4,7-10,11-15,13z"/>
</g>
<g>
   <path fill="#8B5A2B" d="M390.5,370.5c-6,1-12,1-18-1c-6-2-11-6-14-11c-3-5-3-12-1-18c2-6,7-11,13-14c6-3,14-3,20-1c6,2,11,7,14,12
   	c3,5,3,12,0,18c-3,6-8,11-14,15z"/>
</g>
<g>
   <path fill="#8B5A2B" d="M155.5,348.5c-7,2-14,2-21,0c-7-2-13-6-16-12c-3-6-4-13-1-19c3-6,8-12,15-15c7-3,15-3,22,0c7,3,12,8,15,14
   	c3,6,3,13,0,19c-3,6-8,11-14,13z"/>
</g>
<g>
   <path fill="#8B5A2B" d="M478.5,283.5c-5,1-10,1-15-1c-5-2-9-5-11-9c-2-4-2-10,0-15c2-5,6-9,11-11c5-2,11-2,16,0c5,2,9,6,11,11
   	c2,5,1,11-1,16c-2,5-6,8-11,9z"/>
</g>
<g>
   <path fill="#8B5A2B" d="M248.5,208.5c-5,1-10,1-15-1c-5-2-9-5-11-10c-2-5-1-10,1-15c2-5,6-9,11-11c5-2,11-2,16,1c5,3,8,7,9,12
   	c1,5,0,11-3,15c-3,4-6,7-8,9z"/>
</g>
<g>
   <path fill="#8B5A2B" d="M430.5,200.5c-5,1-11,1-16-1c-5-2-10-6-12-11c-2-5-2-11,1-16c3-5,7-9,13-11c6-2,12-1,17,2c5,3,9,7,10,13
   	c1,6,0,12-3,17c-3,5-7,8-10,7z"/>
</g>
<g>
   <path fill="#8B5A2B" d="M315.5,382.5c-4,1-8,1-12-1c-4-2-7-4-8-8c-1-4-1-8,1-12c2-4,5-7,9-8c4-1,9-1,13,2c4,3,6,6,7,10c1,4,0,9-3,12
   	c-3,3-5,5-7,5z"/>
</g>
<g>
   <path fill="#8B5A2B" d="M510.5,388.5c-6,2-13,2-19,0c-6-2-11-6-14-11c-3-5-3-12,0-18c3-6,8-11,14-13c6-2,13-2,19,1c6,3,10,7,12,13
   	c2,6,1,12-2,17c-3,5-7,9-10,11z"/>
</g>
<g>
	<path fill="none" stroke="#85541fff" stroke-width="14" stroke-miterlimit="10" d="M584.286,298.145
		c0,4.893,0.729,9.797,0.488,14.629c-0.243,4.885,0.729,9.912,0.245,14.729c-0.489,4.863-2.565,9.578-3.293,14.367
		c-0.733,4.83-3.806,9.203-4.776,13.951c-0.977,4.783-1.236,9.658-2.448,14.352c-1.221,4.727-1.181,9.797-2.631,14.426
		c-1.459,4.654-2.014,9.676-3.7,14.226c-1.694,4.573-6.609,7.855-8.525,12.315c-1.925,4.479-1.575,9.983-3.717,14.342
		c-2.149,4.373-3.544,9.228-5.905,13.473c-2.368,4.257-5.435,8.202-8.009,12.323c-2.58,4.131-8.267,6.186-11.047,10.172
		c-2.784,3.994-4.855,8.406-7.834,12.249c-2.982,3.847-4.101,9.22-7.271,12.908c-3.171,3.691-8.433,5.492-11.784,9.017
		c-3.353,3.526-5.622,8.1-9.147,11.452c-3.525,3.352-7.778,5.886-11.47,9.057c-3.688,3.17-6.203,7.806-10.051,10.788
		c-3.843,2.979-9.693,3.206-13.687,5.991c-3.987,2.78-6.732,7.376-10.862,9.955c-4.122,2.574-9.037,3.779-13.295,6.147
		c-4.245,2.361-7.246,7.151-11.619,9.301c-4.358,2.142-10.116,1.284-14.595,3.209c-4.46,1.916-8.132,5.791-12.704,7.485
		c-4.55,1.686-9.982,0.748-14.638,2.207c-4.628,1.451-9.01,3.553-13.735,4.772c-4.694,1.212-9.565,1.398-14.35,2.377
		c-4.747,0.97-9.439,1.802-14.269,2.535c-4.789,0.728-9.433,2.168-14.295,2.657c-4.817,0.484-9.62,0.681-14.504,0.924
		c-4.833,0.241-9.633,2.074-14.525,2.074s-9.767-0.33-14.6-0.571c-4.884-0.243-9.837,0.296-14.654-0.188
		c-4.863-0.489-9.441-3.111-14.23-3.839c-4.83-0.733-10.069,0.836-14.816-0.135c-4.784-0.978-9.441-2.715-14.136-3.927
		c-4.726-1.221-8.768-4.744-13.396-6.195c-4.655-1.459-10.323,0.04-14.874-1.646c-4.573-1.694-8.675-4.711-13.135-6.628
		c-4.479-1.924-7.994-5.87-12.353-8.012c-4.373-2.149-9.16-3.392-13.405-5.753c-4.257-2.368-9.04-3.857-13.161-6.432
		c-4.13-2.58-7.767-5.937-11.753-8.717c-3.994-2.785-9.006-4.256-12.848-7.234c-3.847-2.982-7.803-5.979-11.491-9.148
		c-3.691-3.172-6.287-7.641-9.812-10.992c-3.526-3.353-8.079-5.76-11.432-9.285c-3.352-3.525-4.727-8.882-7.898-12.573
		c-3.169-3.688-7.843-6.176-10.825-10.022c-2.979-3.843-6.137-7.653-8.922-11.646c-2.78-3.987-3.492-9.375-6.072-13.506
		c-2.574-4.121-7.403-6.958-9.771-11.216c-2.361-4.245-3.795-9.071-5.944-13.445c-2.142-4.357-2.353-9.616-4.277-14.095
		c-1.917-4.46-3.866-8.871-5.56-13.443c-1.686-4.55-5.665-8.356-7.124-13.012c-1.451-4.628-2.353-9.509-3.573-14.233
		c-1.212-4.694,0.924-10.16-0.054-14.943c-0.971-4.748-2.447-9.336-3.181-14.166c-0.728-4.789-2.087-9.468-2.576-14.33
		c-0.484-4.817,0.057-9.681-0.187-14.564c-0.241-4.834-1.162-9.619-1.162-14.512s0.959-9.676,1.2-14.509
		c0.244-4.884-2.028-9.919-1.544-14.736c0.489-4.863,4.054-9.294,4.781-14.083c0.734-4.83-2.358-10.326-1.388-15.074
		c0.978-4.783,2.576-9.503,3.788-14.198c1.22-4.726,2.265-9.579,3.716-14.208c1.459-4.655,3.601-9.152,5.287-13.702
		c1.694-4.573,3.081-9.345,4.997-13.805c1.925-4.479,6.654-7.677,8.796-12.035c2.149-4.373,4.398-8.621,6.76-12.866
		c2.368-4.257,3.075-9.481,5.649-13.602c2.58-4.13,5.596-8.012,8.376-11.999c2.785-3.994,5.791-7.85,8.77-11.692
		c2.982-3.847,6.722-7.071,9.891-10.759c3.172-3.691,5.242-8.4,8.594-11.925c3.353-3.526,6.479-7.378,10.005-10.731
		c3.525-3.352,8.151-5.558,11.842-8.729c3.688-3.169,7.28-6.49,11.127-9.472c3.842-2.979,8.438-4.933,12.432-7.718
		c3.987-2.78,8.527-4.629,12.658-7.208c4.121-2.574,6.986-7.259,11.243-9.627c4.245-2.361,8.812-4.206,13.185-6.355
		c4.358-2.142,9.323-2.966,13.802-4.891c4.46-1.917,8.532-4.797,13.105-6.492c4.55-1.686,9.607-1.864,14.262-3.323
		c4.628-1.451,8.87-4.239,13.596-5.459c4.694-1.212,9.256-3.267,14.04-4.244c4.747-0.971,9.811-0.477,14.64-1.211
		c4.789-0.728,9.653-0.937,14.516-1.426c4.817-0.484,9.637-1.032,14.521-1.276c4.833-0.241,9.684-0.917,14.576-0.917
		s9.851-1.488,14.684-1.247c4.884,0.244,9.68,2.11,14.497,2.594c4.863,0.489,9.963-0.565,14.752,0.163
		c4.83,0.734,9.324,3.565,14.071,4.536c4.784,0.978,9.078,3.822,13.772,5.035c4.726,1.22,9.983,0.413,14.611,1.864
		c4.655,1.459,8.913,4.04,13.463,5.726c4.573,1.694,9.651,2.124,14.11,4.04c4.479,1.925,8.886,4.092,13.244,6.233
		c4.373,2.149,8.285,5.206,12.53,7.567c4.257,2.368,8.76,4.332,12.881,6.906c4.131,2.58,7.929,5.682,11.915,8.462
		c3.994,2.785,7.839,5.764,11.682,8.743c3.847,2.982,6.384,7.483,10.072,10.653c3.69,3.171,8.409,5.122,11.934,8.474
		c3.526,3.353,7.827,5.955,11.18,9.48c3.352,3.525,6.043,7.687,9.214,11.378c3.17,3.688,5.751,7.85,8.732,11.696
		c2.979,3.843,5.146,8.229,7.932,12.223c2.779,3.987,8.294,6.196,10.874,10.326c2.574,4.122,1.747,10.264,4.115,14.521
		c2.361,4.245,5.653,7.945,7.802,12.318c2.143,4.358,3.578,9,5.503,13.479c1.916,4.46,5.983,8.072,7.678,12.645
		c1.686,4.55,2.708,9.39,4.167,14.045c1.451,4.628,0.774,9.857,1.994,14.583c1.212,4.694,3.168,9.18,4.146,13.964
		c0.971,4.748,2.744,9.366,3.478,14.196c0.728,4.789,0.347,9.731,0.836,14.594c0.483,4.817,0.842,9.635,1.085,14.52
		C583.528,288.422,584.286,293.252,584.286,298.145z"/>
</g>
</svg>